<?xml version="1.0" encoding="UTF-8"?>
<svg width="700pt" height="700pt" version="1.1" viewBox="0 0 700 700" xmlns="http://www.w3.org/2000/svg"
>
    <defs>
        <symbol id="v" overflow="visible">
            <path d="m4.1094-0.25c-0.21094 0.11719-0.42969 0.19922-0.65625 0.25-0.23047 0.0625-0.46875 0.09375-0.71875 0.09375-0.75 0-1.3438-0.20703-1.7812-0.625-0.42969-0.41406-0.64062-0.98438-0.64062-1.7031s0.21094-1.2852 0.64062-1.7031c0.4375-0.41406 1.0312-0.625 1.7812-0.625 0.25 0 0.48828 0.03125 0.71875 0.09375 0.22656 0.054688 0.44531 0.13672 0.65625 0.25v0.92188c-0.21094-0.14453-0.41797-0.25-0.625-0.3125-0.21094-0.070313-0.42969-0.10938-0.65625-0.10938-0.41797 0-0.74609 0.13672-0.98438 0.40625-0.23047 0.26172-0.34375 0.62109-0.34375 1.0781 0 0.46094 0.11328 0.82422 0.34375 1.0938 0.23828 0.26172 0.56641 0.39062 0.98438 0.39062 0.22656 0 0.44531-0.03125 0.65625-0.09375 0.20703-0.070312 0.41406-0.17969 0.625-0.32812z"/>
        </symbol>
        <symbol id="d" overflow="visible">
            <path d="m3.0156-2.4375c-0.09375-0.050781-0.1875-0.085938-0.28125-0.10938-0.09375-0.019531-0.1875-0.03125-0.28125-0.03125-0.28125 0-0.49609 0.089844-0.64062 0.26562-0.14844 0.17969-0.21875 0.43359-0.21875 0.76562v1.5469h-1.0781v-3.3594h1.0781v0.54688c0.13281-0.21875 0.28906-0.375 0.46875-0.46875 0.17578-0.10156 0.39062-0.15625 0.64062-0.15625h0.125c0.039063 0 0.097656 0.007812 0.17188 0.015625z"/>
        </symbol>
        <symbol id="b" overflow="visible">
            <path d="m3.875-1.6875v0.3125h-2.5156c0.019531 0.25 0.10938 0.4375 0.26562 0.5625s0.375 0.1875 0.65625 0.1875c0.22656 0 0.45703-0.03125 0.6875-0.09375 0.23828-0.070312 0.48438-0.17578 0.73438-0.3125v0.82812c-0.25 0.09375-0.50781 0.16797-0.76562 0.21875-0.25 0.050781-0.5 0.078125-0.75 0.078125-0.60547 0-1.0781-0.15625-1.4219-0.46875-0.33594-0.3125-0.5-0.74219-0.5-1.2969 0-0.55078 0.16016-0.98438 0.48438-1.2969 0.33203-0.3125 0.78906-0.46875 1.375-0.46875 0.53125 0 0.95312 0.16406 1.2656 0.48438 0.32031 0.3125 0.48438 0.73438 0.48438 1.2656zm-1.1094-0.35938c0-0.19531-0.0625-0.35938-0.1875-0.48438-0.11719-0.125-0.26562-0.1875-0.45312-0.1875-0.21094 0-0.38281 0.058594-0.51562 0.17188-0.125 0.11719-0.20312 0.28125-0.23438 0.5z"/>
        </symbol>
        <symbol id="l" overflow="visible">
            <path d="m2.0156-1.5156c-0.21875 0-0.38672 0.042969-0.5 0.125-0.11719 0.074219-0.17188 0.18359-0.17188 0.32812 0 0.13672 0.046875 0.24609 0.14062 0.32812 0.09375 0.074219 0.21875 0.10938 0.375 0.10938 0.20703 0 0.37891-0.070312 0.51562-0.21875 0.13281-0.14453 0.20312-0.32812 0.20312-0.54688v-0.125zm1.6406-0.40625v1.9219h-1.0781v-0.5c-0.14844 0.21094-0.30859 0.35938-0.48438 0.45312-0.17969 0.09375-0.39844 0.14062-0.65625 0.14062-0.34375 0-0.625-0.097656-0.84375-0.29688-0.21875-0.20703-0.32812-0.47266-0.32812-0.79688 0-0.39453 0.13281-0.6875 0.40625-0.875 0.26953-0.1875 0.69531-0.28125 1.2812-0.28125h0.625v-0.078125c0-0.16406-0.070313-0.28516-0.20312-0.35938-0.13672-0.082031-0.34375-0.125-0.625-0.125-0.23047 0-0.44531 0.023438-0.64062 0.0625-0.19922 0.042969-0.38281 0.10938-0.54688 0.20312v-0.8125c0.22656-0.0625 0.45703-0.10156 0.6875-0.125 0.22656-0.03125 0.46094-0.046875 0.70312-0.046875 0.60156 0 1.0352 0.12109 1.2969 0.35938 0.26953 0.24219 0.40625 0.625 0.40625 1.1562z"/>
        </symbol>
        <symbol id="a" overflow="visible">
            <path d="m1.6875-4.3125v0.95312h1.1094v0.76562h-1.1094v1.4219c0 0.15625 0.03125 0.26562 0.09375 0.32812 0.0625 0.054688 0.1875 0.078125 0.375 0.078125h0.54688v0.76562h-0.92188c-0.42969 0-0.73047-0.085938-0.90625-0.26562-0.17969-0.17578-0.26562-0.47656-0.26562-0.90625v-1.4219h-0.53125v-0.76562h0.53125v-0.95312z"/>
        </symbol>
        <symbol id="f" overflow="visible">
            <path d="m2.7969-2.8594v-1.8125h1.0781v4.6719h-1.0781v-0.48438c-0.14844 0.19922-0.30859 0.34375-0.48438 0.4375-0.17969 0.09375-0.38672 0.14062-0.625 0.14062-0.40625 0-0.74609-0.16406-1.0156-0.5-0.26172-0.33203-0.39062-0.75391-0.39062-1.2656 0-0.51953 0.12891-0.94141 0.39062-1.2656 0.26953-0.33203 0.60938-0.5 1.0156-0.5 0.23828 0 0.44531 0.046875 0.625 0.14062 0.17578 0.09375 0.33594 0.24219 0.48438 0.4375zm-0.70312 2.1719c0.22656 0 0.39844-0.082031 0.51562-0.25 0.125-0.17578 0.1875-0.42188 0.1875-0.73438 0-0.32031-0.0625-0.56641-0.1875-0.73438-0.11719-0.16406-0.28906-0.25-0.51562-0.25-0.23047 0-0.40625 0.085938-0.53125 0.25-0.11719 0.16797-0.17188 0.41406-0.17188 0.73438 0 0.3125 0.054687 0.55859 0.17188 0.73438 0.125 0.16797 0.30078 0.25 0.53125 0.25z"/>
        </symbol>
        <symbol id="k" overflow="visible">
            <path d="m2.2969-0.6875c0.22656 0 0.40625-0.082031 0.53125-0.25 0.125-0.17578 0.1875-0.42188 0.1875-0.73438 0-0.32031-0.0625-0.56641-0.1875-0.73438-0.125-0.16406-0.30469-0.25-0.53125-0.25-0.23047 0-0.40625 0.085938-0.53125 0.25-0.11719 0.16797-0.17188 0.41406-0.17188 0.73438 0 0.3125 0.054688 0.55859 0.17188 0.73438 0.125 0.16797 0.30078 0.25 0.53125 0.25zm-0.70312-2.1719c0.14453-0.19531 0.30469-0.34375 0.48438-0.4375 0.17578-0.09375 0.38281-0.14062 0.625-0.14062 0.41406 0 0.75391 0.16797 1.0156 0.5 0.26953 0.32422 0.40625 0.74609 0.40625 1.2656 0 0.51172-0.13672 0.93359-0.40625 1.2656-0.26172 0.33594-0.60156 0.5-1.0156 0.5-0.24219 0-0.44922-0.046875-0.625-0.14062-0.17969-0.09375-0.33984-0.23828-0.48438-0.4375v0.48438h-1.0781v-4.6719h1.0781z"/>
        </symbol>
        <symbol id="e" overflow="visible">
            <path d="m0.078125-3.3594h1.0625l0.90625 2.2812 0.76562-2.2812h1.0781l-1.4062 3.6719c-0.14844 0.375-0.3125 0.63281-0.5 0.78125-0.1875 0.15625-0.4375 0.23438-0.75 0.23438h-0.625v-0.70312h0.34375c0.17578 0 0.30469-0.03125 0.39062-0.09375 0.082031-0.054688 0.14844-0.15625 0.20312-0.3125l0.03125-0.09375z"/>
        </symbol>
        <symbol id="j" overflow="visible">
            <path d="m3.2812-0.8125h-1.8125l-0.28125 0.8125h-1.1562l1.6562-4.4688h1.375l1.6562 4.4688h-1.1562zm-1.5156-0.82812h1.2188l-0.60938-1.7812z"/>
        </symbol>
        <symbol id="i" overflow="visible">
            <path d="m3.625-2.7969c0.13281-0.20703 0.29688-0.36328 0.48438-0.46875 0.1875-0.11328 0.39453-0.17188 0.625-0.17188 0.38281 0 0.67578 0.12109 0.875 0.35938 0.19531 0.24219 0.29688 0.58594 0.29688 1.0312v2.0469h-1.0781v-1.75c0.007813-0.03125 0.015625-0.054688 0.015625-0.078125v-0.125c0-0.23828-0.039062-0.41016-0.10938-0.51562-0.074219-0.10156-0.1875-0.15625-0.34375-0.15625-0.19922 0-0.35547 0.085938-0.46875 0.25-0.11719 0.16797-0.17188 0.40625-0.17188 0.71875v1.6562h-1.0781v-1.75c0-0.375-0.03125-0.61328-0.09375-0.71875-0.0625-0.10156-0.17969-0.15625-0.34375-0.15625-0.21094 0-0.37109 0.085938-0.48438 0.25-0.10547 0.16797-0.15625 0.40625-0.15625 0.71875v1.6562h-1.0781v-3.3594h1.0781v0.5c0.125-0.19531 0.26953-0.34375 0.4375-0.4375 0.17578-0.09375 0.36719-0.14062 0.57812-0.14062 0.22656 0 0.42969 0.058594 0.60938 0.17188 0.17578 0.10547 0.3125 0.26172 0.40625 0.46875z"/>
        </symbol>
        <symbol id="h" overflow="visible">
            <path d="m3.8906-2.0469v2.0469h-1.0781v-1.5625c0-0.28906-0.007812-0.48828-0.015625-0.59375-0.011719-0.11328-0.039063-0.19531-0.078125-0.25-0.042969-0.070312-0.10156-0.125-0.17188-0.15625-0.0625-0.039062-0.14062-0.0625-0.23438-0.0625-0.23047 0-0.40625 0.089844-0.53125 0.26562-0.125 0.16797-0.1875 0.40234-0.1875 0.70312v1.6562h-1.0781v-4.6719h1.0781v1.8125c0.15625-0.19531 0.32031-0.34375 0.5-0.4375 0.1875-0.09375 0.39062-0.14062 0.60938-0.14062 0.39453 0 0.69141 0.12109 0.89062 0.35938 0.19531 0.24219 0.29688 0.58594 0.29688 1.0312z"/>
        </symbol>
        <symbol id="u" overflow="visible">
            <path d="m3.1406-3.25v0.8125c-0.23047-0.09375-0.45312-0.16016-0.67188-0.20312-0.21094-0.050781-0.40625-0.078125-0.59375-0.078125-0.21094 0-0.36719 0.027344-0.46875 0.078125-0.09375 0.042969-0.14062 0.12109-0.14062 0.23438 0 0.085938 0.035156 0.15234 0.10938 0.20312 0.070312 0.042969 0.20703 0.074219 0.40625 0.09375l0.1875 0.015625c0.55078 0.074219 0.92188 0.19531 1.1094 0.35938 0.1875 0.15625 0.28125 0.40625 0.28125 0.75 0 0.35547-0.13281 0.625-0.39062 0.8125-0.26172 0.17578-0.65625 0.26562-1.1875 0.26562-0.21875 0-0.44922-0.023438-0.6875-0.0625-0.23047-0.03125-0.46875-0.082031-0.71875-0.15625v-0.8125c0.20703 0.10547 0.42188 0.18359 0.64062 0.23438 0.22656 0.054687 0.46094 0.078125 0.70312 0.078125 0.20703 0 0.36328-0.023438 0.46875-0.078125 0.10156-0.0625 0.15625-0.14844 0.15625-0.26562 0-0.09375-0.039062-0.16016-0.10938-0.20312-0.074219-0.050781-0.21875-0.09375-0.4375-0.125l-0.1875-0.015625c-0.48047-0.0625-0.82031-0.17188-1.0156-0.32812-0.1875-0.16406-0.28125-0.41406-0.28125-0.75 0-0.35156 0.11719-0.61328 0.35938-0.78125 0.25-0.17578 0.62891-0.26562 1.1406-0.26562 0.19531 0 0.39844 0.015625 0.60938 0.046875 0.21875 0.03125 0.45703 0.078125 0.71875 0.14062z"/>
        </symbol>
        <symbol id="t" overflow="visible">
            <path d="m3.6719-4.3281v0.9375c-0.24219-0.10156-0.48047-0.17969-0.71875-0.23438-0.23047-0.0625-0.44922-0.09375-0.65625-0.09375-0.27344 0-0.47656 0.039062-0.60938 0.10938-0.13672 0.074219-0.20312 0.19531-0.20312 0.35938 0 0.11719 0.039063 0.21094 0.125 0.28125 0.09375 0.0625 0.25781 0.12109 0.5 0.17188l0.48438 0.09375c0.5 0.10547 0.85156 0.26172 1.0625 0.46875 0.20703 0.19922 0.3125 0.48438 0.3125 0.85938 0 0.49219-0.14844 0.85938-0.4375 1.1094-0.29297 0.24219-0.74219 0.35938-1.3438 0.35938-0.28125 0-0.57031-0.03125-0.85938-0.09375-0.28125-0.050781-0.5625-0.12891-0.84375-0.23438v-0.96875c0.28125 0.14844 0.55078 0.26172 0.8125 0.34375 0.26953 0.074219 0.53125 0.10938 0.78125 0.10938s0.44141-0.039062 0.57812-0.125c0.13281-0.082031 0.20312-0.20312 0.20312-0.35938 0-0.13281-0.046875-0.23828-0.14062-0.3125-0.085938-0.082031-0.26172-0.15625-0.53125-0.21875l-0.45312-0.09375c-0.44922-0.09375-0.77734-0.24219-0.98438-0.45312-0.21094-0.21875-0.3125-0.50391-0.3125-0.85938 0-0.44531 0.14062-0.78906 0.42188-1.0312 0.28906-0.23828 0.70703-0.35938 1.25-0.35938 0.25 0 0.50391 0.023438 0.76562 0.0625 0.25781 0.03125 0.52344 0.089844 0.79688 0.17188z"/>
        </symbol>
        <symbol id="g" overflow="visible">
            <path d="m0.48438-1.3125v-2.0469h1.0781v0.34375c0 0.17969-0.007812 0.40625-0.015625 0.6875v0.54688c0 0.27344 0.003906 0.46484 0.015625 0.57812 0.019531 0.11719 0.046875 0.20312 0.078125 0.26562 0.050781 0.0625 0.10938 0.11719 0.17188 0.15625 0.070312 0.042969 0.15625 0.0625 0.25 0.0625 0.22656 0 0.40625-0.082031 0.53125-0.25 0.125-0.17578 0.1875-0.42188 0.1875-0.73438v-1.6562h1.0781v3.3594h-1.0781v-0.48438c-0.15625 0.19922-0.32812 0.34375-0.51562 0.4375-0.17969 0.09375-0.375 0.14062-0.59375 0.14062-0.38672 0-0.68359-0.11719-0.89062-0.35938-0.19922-0.23828-0.29688-0.58594-0.29688-1.0469z"/>
        </symbol>
        <symbol id="s" overflow="visible">
            <path d="m0.51562-3.3594h1.0781v3.3594h-1.0781zm0-1.3125h1.0781v0.875h-1.0781z"/>
        </symbol>
        <symbol id="c" overflow="visible">
            <path d="m2.1094-2.6719c-0.24219 0-0.42188 0.089844-0.54688 0.26562-0.125 0.16797-0.1875 0.41406-0.1875 0.73438 0 0.32422 0.0625 0.57031 0.1875 0.73438 0.125 0.16797 0.30469 0.25 0.54688 0.25 0.23828 0 0.42188-0.082031 0.54688-0.25 0.125-0.16406 0.1875-0.41016 0.1875-0.73438 0-0.32031-0.0625-0.56641-0.1875-0.73438-0.125-0.17578-0.30859-0.26562-0.54688-0.26562zm0-0.76562c0.58203 0 1.0352 0.15625 1.3594 0.46875 0.32031 0.3125 0.48438 0.74609 0.48438 1.2969 0 0.55469-0.16406 0.98438-0.48438 1.2969-0.32422 0.3125-0.77734 0.46875-1.3594 0.46875-0.57422 0-1.0273-0.15625-1.3594-0.46875-0.32422-0.3125-0.48438-0.74219-0.48438-1.2969 0-0.55078 0.16016-0.98438 0.48438-1.2969 0.33203-0.3125 0.78516-0.46875 1.3594-0.46875z"/>
        </symbol>
        <symbol id="r" overflow="visible">
            <path d="m2.7188-4.6719v0.71875h-0.59375c-0.14844 0-0.25 0.027344-0.3125 0.078125-0.0625 0.054688-0.09375 0.14844-0.09375 0.28125v0.23438h0.92188v0.76562h-0.92188v2.5938h-1.0625v-2.5938h-0.54688v-0.76562h0.54688v-0.23438c0-0.36328 0.097656-0.63281 0.29688-0.8125 0.20703-0.17578 0.52344-0.26562 0.95312-0.26562z"/>
        </symbol>
        <symbol id="q" overflow="visible">
            <path d="m0.5625-4.4688h1.2969l1.625 3.0625v-3.0625h1.0938v4.4688h-1.2969l-1.625-3.0781v3.0781h-1.0938z"/>
        </symbol>
        <symbol id="p" overflow="visible">
            <path d="m3.8906-2.0469v2.0469h-1.0781v-1.5625c0-0.28906-0.007812-0.48828-0.015625-0.59375-0.011719-0.11328-0.039063-0.19531-0.078125-0.25-0.042969-0.070312-0.10156-0.125-0.17188-0.15625-0.0625-0.039062-0.14062-0.0625-0.23438-0.0625-0.23047 0-0.40625 0.089844-0.53125 0.26562-0.125 0.16797-0.1875 0.40234-0.1875 0.70312v1.6562h-1.0781v-3.3594h1.0781v0.5c0.15625-0.19531 0.32031-0.34375 0.5-0.4375 0.1875-0.09375 0.39062-0.14062 0.60938-0.14062 0.39453 0 0.69141 0.12109 0.89062 0.35938 0.19531 0.24219 0.29688 0.58594 0.29688 1.0312z"/>
        </symbol>
        <symbol id="o" overflow="visible">
            <path d="m0.5625-4.4688h1.9219c0.5625 0 0.99219 0.125 1.2969 0.375 0.3125 0.25 0.46875 0.60938 0.46875 1.0781s-0.15625 0.83594-0.46875 1.0938c-0.30469 0.25-0.73438 0.375-1.2969 0.375h-0.76562v1.5469h-1.1562zm1.1562 0.82812v1.25h0.64062c0.21875 0 0.39062-0.050781 0.51562-0.15625 0.125-0.11328 0.1875-0.26953 0.1875-0.46875 0-0.19531-0.0625-0.34766-0.1875-0.45312-0.125-0.11328-0.29688-0.17188-0.51562-0.17188z"/>
        </symbol>
        <symbol id="n" overflow="visible">
            <path d="m0.51562-3.3594h1.0781v3.2969c0 0.44531-0.10938 0.78906-0.32812 1.0312-0.21875 0.23828-0.53125 0.35938-0.9375 0.35938h-0.53125v-0.70312h0.1875c0.19531 0 0.33203-0.046875 0.40625-0.14062 0.082031-0.09375 0.125-0.27734 0.125-0.54688zm0-1.3125h1.0781v0.875h-1.0781z"/>
        </symbol>
        <symbol id="m" overflow="visible">
            <path d="m3.2344-3.25v0.875c-0.14844-0.10156-0.29688-0.17578-0.45312-0.21875-0.14844-0.050781-0.29688-0.078125-0.45312-0.078125-0.29297 0-0.52734 0.089844-0.70312 0.26562-0.16797 0.17969-0.25 0.42188-0.25 0.73438s0.082031 0.55859 0.25 0.73438c0.17578 0.16797 0.41016 0.25 0.70312 0.25 0.16406 0 0.32031-0.019531 0.46875-0.0625 0.15625-0.050781 0.30078-0.12891 0.4375-0.23438v0.89062c-0.16797 0.0625-0.33984 0.10938-0.51562 0.14062-0.17969 0.03125-0.35156 0.046875-0.51562 0.046875-0.60547 0-1.0781-0.15625-1.4219-0.46875s-0.51562-0.74219-0.51562-1.2969c0-0.55078 0.17188-0.98438 0.51562-1.2969s0.81641-0.46875 1.4219-0.46875c0.17578 0 0.34766 0.015625 0.51562 0.046875 0.16406 0.03125 0.33594 0.078125 0.51562 0.14062z"/>
        </symbol>
    </defs>
    <g>
        <path d="m659.47 17.707c0-2.7109-2.1992-4.9141-4.9141-4.9141h-340.49c-4.0195-7.5977-12-12.793-21.176-12.793s-17.156 5.1953-21.176 12.793h-168.91c-34.344 0-62.281 28.152-62.281 62.754 0 34.309 27.703 62.223 61.754 62.223h6.6094c9.707 0 17.602-7.9414 17.602-17.711 0-9.7266-7.8047-17.504-17.762-17.707-4.1992-0.085937-7.6172-3.6211-7.6172-7.8789 0-4.3477 3.4883-7.8828 7.7773-7.8828h116.16c-100.83 29.887-171.83 123.9-171.83 231.79 0 133.23 107.52 241.62 239.68 241.62 132.16 0 239.68-108.39 239.68-241.62 0-107.89-71.004-201.91-171.83-231.79h293.82c2.7109 0 4.9141-2.1992 4.9141-4.9141 0-2.7109-2.1992-4.9141-4.9141-4.9141l-337.72 0.003906v-52.82c0-0.44922-0.042969-0.88672-0.066406-1.3281l337.79-0.003906c2.7109 0 4.9102-2.1992 4.9102-4.9102zm-366.58-7.8828c7.7891 0 14.121 6.3359 14.121 14.121v64.289c0 7.7891-6.3359 14.121-14.121 14.121-7.7852 0.003906-14.121-6.332-14.121-14.121v-64.285c0-7.7891 6.3359-14.125 14.121-14.125zm-201.61 84.652c0 9.5703 7.7383 17.512 17.246 17.703 4.5625 0.089843 8.1367 3.5547 8.1367 7.8867 0 4.3477-3.4883 7.8828-7.7773 7.8828h-6.6094c-28.633 0-51.93-23.508-51.93-52.402 0-29.184 23.531-52.93 52.457-52.93h166.21c-0.023437 0.44141-0.066406 0.87891-0.066406 1.3281v52.82l-160.06 0.003906c-9.707 0-17.605 7.9414-17.605 17.707zm412.88 315.19-19.043 4.1367c11.078-22.59 18.363-47.391 20.984-73.559l16.426-12.016c-1.1992 28.805-7.6289 56.266-18.367 81.438zm-422.53-182.56 19.027-4.1328c-11.211 22.996-18.344 47.926-20.941 73.535l-16.465 12.043c1.1953-28.656 7.6133-56.152 18.379-81.445zm163.72-119.39c-3.125 0.71484-6.2344 1.5-9.3203 2.3555l-17.188-11.188c8.0352-2.75 16.281-5.0703 24.719-6.9258v2.5273c0 4.582 0.63281 9.0156 1.7891 13.23zm111.29 41.797c-4.3945 25.383-10.617 50.617-18.562 75.086-4.0039 12.328-8.5117 24.656-13.395 36.668l-14.191 14.309v-20.613c4.6484-11.57 8.9609-23.434 12.812-35.293 7.9453-24.461 14.195-49.68 18.656-75.051 4.9922 1.4219 9.8867 3.0625 14.68 4.8945zm87.098 71.375c-6.9883 4.8984-14.102 9.6328-21.328 14.203-5.8242-14.984-14.555-24.891-18.352-28.723-14.574-14.691-31.328-20.605-44.324-22.867 2.3516-9.9922 4.4258-20.043 6.2148-30.121 32.156 14.441 59.109 38.094 77.789 67.508zm-150.85 303.71c-3.1992 0-6.375-0.085938-9.5391-0.23047l11.98-15.566c19.742-0.25391 38.762-3.5703 56.613-9.5078l-5.3516 18.074c-17.121 4.7031-35.125 7.2305-53.703 7.2305zm-91.164-21.668 17.141-9.3359c19.902 8.5781 41.547 13.812 64.242 14.984l-11.477 14.906c-24.895-2.6016-48.465-9.7383-69.906-20.555zm-102.74-119.05 18.648 5.6133c8.3711 20.895 20.309 39.957 35.062 56.422l-18.508 2.3516c-15.297-18.973-27.324-40.727-35.203-64.387zm97.785-218.01c4.9648 7.0742 9.7812 14.281 14.418 21.613-15.383 5.8555-25.543 14.93-29.465 18.887-16.363 16.496-21.688 35.789-23.293 48.938-9.4609-4.1211-18.797-8.5117-27.973-13.16 14.422-31.289 37.492-57.801 66.312-76.277zm111.55 67.199c-2.9961-5.4453-8.7891-9.1445-15.43-9.1445-7.1797 0-13.355 4.3242-16.094 10.5-2.5977-5.6367-5.2852-11.234-8.0547-16.742-1.6094-3.2031-3.2539-6.3945-4.9297-9.5703 9.2461-4.207 19.004-6.3477 29.078-6.3477 3.8164 0 13.254 0.48047 24.332 4.457-1.0547 3.4883-2.1406 6.9648-3.2617 10.422-1.7812 5.4805-3.6719 10.965-5.6406 16.426zm-7.6523 8.457v38.594c0 4.2891-3.4883 7.7773-7.7773 7.7773-4.2891 0-7.7773-3.4883-7.7773-7.7773v-38.594c0-4.2891 3.4883-7.7773 7.7773-7.7773 4.2891 0 7.7773 3.4883 7.7773 7.7773zm-22.234 62.238c2.5234-2.543 4.1094-5.6758 4.7695-8.9609 2.7812 1.8438 6.1094 2.9219 9.6914 2.9219 3.5781 0 6.9062-1.0781 9.6914-2.9219 0.66016 3.2852 2.2461 6.418 4.7695 8.9609 2.4844 2.5039 5.582 4.168 8.9492 4.8477-1.8555 2.793-2.9414 6.1367-2.9414 9.7344v0.10547c0 3.5977 1.0859 6.9414 2.9414 9.7344-3.3711 0.68359-6.4688 2.3438-8.9492 4.8477-2.5234 2.543-4.1094 5.6758-4.7695 8.9609-2.7812-1.8438-6.1094-2.9219-9.6914-2.9219-3.5781 0-6.9062 1.0781-9.6914 2.9219-0.66016-3.2852-2.2461-6.418-4.7695-8.9609-2.4883-2.5078-5.5898-4.1719-8.9648-4.8516 1.8633-2.8125 2.9531-6.1914 2.9531-9.8359 0-3.5977-1.0859-6.9414-2.9414-9.7344 3.3711-0.68359 6.4688-2.3438 8.9531-4.8477zm78.953-110.69c11.562 1.9102 26.648 7.0625 39.695 20.215 2.7266 2.75 11.496 12.383 16.812 27.074-5.668 3.4336-11.395 6.7656-17.176 9.9844-5.5664-11.098-12.234-18.477-15.094-21.359-8.2266-8.2969-17.938-14.559-28.906-18.676 1.6484-5.7148 3.2031-11.465 4.668-17.238zm-9.9609 34.562c0.84766-2.6133 1.6641-5.2422 2.4727-7.875 9.3789 3.6172 17.691 9.0273 24.75 16.145 2.5352 2.5547 8.4805 9.1523 13.434 19.148-2.6484 1.4102-5.3047 2.8086-7.9727 4.1719-5.2852 2.6992-10.648 5.3242-16.051 7.8594 0.91797-5.4609-0.69531-11.27-4.8672-15.477-3.3242-3.3555-7.75-5.1992-12.461-5.1992-2.1562 0-4.2461 0.40625-6.2031 1.1445 2.4258-6.6094 4.7383-13.266 6.8984-19.918zm-6.1797 30.887c1.4688-1.4805 3.4141-2.293 5.4844-2.293s4.0156 0.81641 5.4844 2.2969c3.0547 3.082 3.0547 8.0938 0 11.176l-26.918 27.145c-1.4688 1.4805-3.418 2.293-5.4844 2.293-2.0703 0-4.0195-0.8125-5.4883-2.293-3.0547-3.082-3.0547-8.0938 0-11.18zm120.3 120.63c-24.469-4.4062-48.781-10.555-72.379-18.348-16.016-5.2852-31.961-11.414-47.414-18.215l-6.4336-6.4883h31.691c8.8789 3.4648 17.949 6.7305 26.977 9.7148 23.523 7.7656 47.754 13.938 72.148 18.41-1.3203 5.0664-2.8555 10.043-4.5898 14.926zm-168.66 119.86c-13.09 0-25.852-1.4375-38.148-4.1367 3.707-7.5547 7.2695-15.203 10.637-22.945 8.8516 3.2578 18.078 4.9219 27.512 4.9219 7.6484 0 32.727-1.6055 54.219-20.719 4.0586 10.02 7.8125 20.16 11.254 30.383-20.285 8.0625-42.375 12.496-65.473 12.496zm-151.68-84.684c7.9766-2.6836 15.91-5.5586 23.777-8.6211 4.0312 9.2656 9.6367 17.57 16.73 24.723 5.4102 5.4531 24.281 22.211 52.91 24.008-4.2031 9.9609-8.6953 19.785-13.469 29.441-33.043-14.625-60.895-39.023-79.949-69.551zm-27.418-95.93c0-14.719 1.7539-29.055 5.0586-42.801 7.668 3.8711 15.445 7.5703 23.312 11.078-5.7773 14.156-6.4688 26.668-6.4688 31.723 0 25 11.355 43.328 19.496 53.25-9.8047 3.9375-19.719 7.5859-29.703 10.922-7.5469-19.949-11.695-41.578-11.695-64.172zm12.793-67.199c23.961 12.105 48.98 22.512 74.438 30.914 14.168 4.6758 28.688 8.7969 43.191 12.281l6.2461 6.2969h-33.66c-2.0586 0-4.0312 0.375-5.8672 1.0234-4.9102-1.4648-9.8516-3.0039-14.723-4.6133-25.578-8.4453-50.715-18.938-74.738-31.18 1.4961-5 3.2031-9.9102 5.1133-14.723zm112.02 193.56c-27.07-0.37109-44.938-16.246-49.906-21.254-6.1602-6.2109-11.039-13.418-14.574-21.457 6.375-2.6172 12.699-5.3555 18.965-8.207 3.1602 5.0391 6.8633 9.7266 11.066 13.965 4.0977 4.1328 18.375 17.109 40.137 22.141-1.8164 4.9648-3.7266 9.8984-5.6875 14.812zm12.172-33.57c-1.0234 3.1523-2.082 6.2969-3.1641 9.4375-19.816-4.2266-32.801-16.031-36.477-19.738-3.4062-3.4375-6.4414-7.2031-9.0703-11.234 4.3164-2.0625 8.6133-4.1602 12.863-6.3281 2.5938-1.3242 5.1914-2.6875 7.7891-4.0664 0.85547 2.1602 2.1445 4.1836 3.875 5.9297 3.3242 3.3555 7.75 5.1992 12.461 5.1992 4.707 0 9.1328-1.8477 12.461-5.1992l9.4688-9.5469c-3.0078 11.973-6.418 23.875-10.207 35.547zm20.68-60.062-26.922 27.145c-1.4688 1.4805-3.4141 2.293-5.4844 2.293-2.0703 0-4.0156-0.8125-5.4844-2.293-3.0547-3.082-3.0547-8.0938 0-11.18l26.918-27.141c1.4688-1.4805 3.418-2.293 5.4844-2.293 2.0703 0 4.0195 0.8125 5.4883 2.293 3.0547 3.082 3.0547 8.0938 0 11.176zm-106.71 16.578c-7.1562-8.0312-19.219-25.152-19.219-49.305 0-4.4219 0.60547-15.352 5.6523-27.801 6.2578 2.6602 12.566 5.1953 18.914 7.6172-2.2852 8.9883-2.668 16.324-2.668 20.184 0 18.16 6.0117 32.703 12.094 42.785-4.8867 2.25-9.8164 4.418-14.773 6.5195zm23.703-10.734c-5.543-8.9336-11.199-22.082-11.199-38.57 0-2.625 0.23828-8.8984 2.1172-16.746 4.5742 1.6484 9.1602 3.2578 13.766 4.7773 2.8516 0.94141 5.7266 1.8633 8.6094 2.7617-1.6328 2.6719-2.5898 5.8008-2.5898 9.1562v0.10547c0 9.7344 7.918 17.656 17.656 17.656h10.613c-9.3242 5.5-18.836 10.738-28.426 15.641-3.4922 1.7773-7.0117 3.5117-10.547 5.2188zm28.359-30.691c-4.3164 0-7.832-3.5117-7.832-7.832v-0.10547c0-4.3164 3.5117-7.832 7.832-7.832h37.965c4.3164 0 7.832 3.5117 7.832 7.9375 0 4.3164-3.5117 7.832-7.832 7.832zm-13.344 34.215c14.574-7.4453 28.969-15.652 42.812-24.391h4.1914l-23.875 24.07c-2.3555 2.3789-3.8828 5.2734-4.6133 8.3242-3.8203 2.0703-7.6797 4.1133-11.516 6.0742-23.879 12.199-48.879 22.652-74.316 31.102-2.5-4.5508-4.8125-9.2188-6.9258-13.996 25.402-8.5195 50.367-18.988 74.242-31.184zm56.66 53.73c5.5195-16.992 10.254-34.457 14.102-51.938l1.0664-1.0742v34.059c0 4.0391 1.3828 7.7578 3.6797 10.73-1.3047 4.3867-2.6602 8.7969-4.0742 13.156-8.1367 25.059-18.203 49.688-29.906 73.285-4.9961-1.3984-9.9023-3.0156-14.715-4.8281 11.656-23.656 21.703-48.312 29.848-73.391zm50.371-18.953v-12.895c6.5977 11.082 12.832 22.426 18.594 33.895 1.1289 2.25 2.2266 4.5156 3.3281 6.7852-16.941 11.07-34.344 11.98-39.527 11.98-4.2422 0-8.4648-0.39063-12.609-1.1523 1.3594-3.8867 2.6914-7.7852 3.9609-11.691 1.0977-3.3789 2.1523-6.7852 3.1875-10.195 1.7227 0.5625 3.5547 0.87891 5.4609 0.87891 9.7109-0.003906 17.605-7.8984 17.605-17.605zm-33.574 47.965c5.2383 1.0703 10.594 1.6211 15.977 1.6211 5.7734 0 24.898-1 43.762-12.859 2.2148 4.7852 4.3594 9.6016 6.4375 14.457-19.422 19.031-43.172 20.566-50.195 20.566-8.1055 0-16.043-1.4102-23.672-4.1562 2.6836-6.4922 5.25-13.039 7.6914-19.629zm23.75-47.965c0 4.2891-3.4883 7.7773-7.7773 7.7773-4.2891 0-7.7773-3.4883-7.7773-7.7773v-38.594c0-4.2891 3.4883-7.7773 7.7773-7.7773 4.2891 0 7.7773 3.4883 7.7773 7.7773zm66.754 87.336c-8.1953-24.199-18.109-47.973-29.555-70.75-8.2734-16.465-17.48-32.68-27.375-48.23v-2.4141l23.777 23.973c2.7031 2.7266 6.1406 4.4375 9.8594 4.9883 2.6016 4.8086 5.1602 9.6758 7.5977 14.531 11.445 22.773 21.328 46.562 29.461 70.777-4.4727 2.5703-9.0625 4.9492-13.766 7.125zm-47.609-144.95c2.0703 0 4.0156 0.8125 5.4844 2.293l26.918 27.141c3.0547 3.082 3.0547 8.0977 0 11.18-1.4688 1.4805-3.4141 2.293-5.4844 2.293s-4.0156-0.8125-5.4844-2.293l-26.922-27.145c-3.0547-3.082-3.0547-8.0938 0-11.176 1.4688-1.4805 3.418-2.293 5.4883-2.293zm40.695 62.637c-1.9609-3.9023-4.0078-7.8125-6.0781-11.699 1.7422-0.85156 3.3555-1.9844 4.7656-3.4062 6.707-6.7578 6.8203-17.664 0.37891-24.59 8.7734 3.4141 17.637 6.6055 26.52 9.5391 1.9844 0.65625 3.9844 1.2773 5.9766 1.9102-5.2148 15.641-14.492 25.895-17.418 28.844-3.0273 3.0508-6.3203 5.793-9.8164 8.2227-1.4219-2.957-2.8594-5.8984-4.3281-8.8203zm8.5508 17.84c4.5039-2.9961 8.7227-6.4531 12.566-10.328 4.2656-4.2969 14.168-15.648 19.84-32.875 5.418 1.6094 10.859 3.1484 16.332 4.5898-2.5 23.875-16.34 39.574-20.711 43.984-5.7266 5.7734-12.32 10.434-19.625 13.926-2.6836-6.4883-5.4844-12.926-8.4023-19.297zm99.301-63.488c-8.1953-1.4961-16.367-3.1914-24.508-5.0742 4.1172-9.9531 6.2305-20.406 6.2305-31.172 0-6.6055-1.2305-28.59-16.043-48.988 8.7266-5.3789 17.301-11.004 25.691-16.855 7.918 20.453 12.25 42.676 12.25 65.844 0.003906 12.41-1.2461 24.531-3.6211 36.246zm-42.762-80.141c13.551 18.188 14.664 37.992 14.664 43.891 0 9.9766-2.0469 19.66-6.0703 28.844-6.4844-1.6289-12.934-3.375-19.344-5.2422 2.3203-7.6523 3.5156-15.566 3.5156-23.602 0-5.6641-0.84766-19.754-7.9883-35.215 5.1094-2.8086 10.191-5.6953 15.223-8.6758zm-23.902 13.34c6.2891 13.945 6.8398 26.695 6.8398 30.551 0 7.0703-1.0508 14.031-3.0938 20.766-2.7969-0.87109-5.5938-1.7578-8.3711-2.6719-5.2422-1.7305-10.496-3.5703-15.719-5.4766 3.2578-3.2188 5.2852-7.6953 5.2852-12.668 0-7.9883-5.3398-14.746-12.633-16.918 7.4414-3.3867 14.812-6.9297 22.051-10.625 1.8867-0.96875 3.7617-1.9648 5.6406-2.957zm-32.719 22.668c4.3164 0 7.832 3.5117 7.832 7.9375 0 4.3164-3.5117 7.832-7.832 7.832h-37.965c-4.3164 0-7.832-3.5117-7.832-7.832v-0.10547c0-4.3164 3.5117-7.832 7.832-7.832zm-97.52-13.668c-1.4688 1.4805-3.418 2.293-5.4883 2.293-2.0703 0-4.0156-0.8125-5.4844-2.293l-26.918-27.141c-3.0547-3.082-3.0547-8.0938 0-11.176 1.4688-1.4805 3.4141-2.293 5.4844-2.293 2.0703 0 4.0156 0.81641 5.4844 2.2969l26.922 27.141c3.0547 3.0742 3.0547 8.0898 0 11.172zm-32.406-50.438c-4.7109 0-9.1328 1.8477-12.461 5.1992-6.8398 6.8945-6.8398 18.117 0 25.012l4.1094 4.1445c-8.9375-2.4414-17.836-5.0898-26.594-7.9844-3.8555-1.2734-7.6953-2.6055-11.527-3.9688 3.2891-12.73 9.5117-23.789 18.551-32.902 2.6641-2.6875 9.5742-8.9922 20.051-14.062 2.0898 3.918 4.1523 7.8477 6.1406 11.809 2.2227 4.4219 4.3828 8.9102 6.4961 13.422-1.5312-0.42969-3.1289-0.66797-4.7656-0.66797zm-34.895-17.418c-9.9141 9.9961-17.047 22.5-20.84 36.43-5.1719-1.9492-10.316-3.9883-15.43-6.1016 0.98828-11.566 5.1953-30.285 20.812-46.031 2.8164-2.8398 12.699-11.969 27.773-17.277 3.4414 5.6719 6.7734 11.406 10 17.195-11.609 5.707-19.312 12.758-22.316 15.785zm-99.926 79.527-14.691-11.496c2.5977-24.832 9.668-48.582 20.434-70.293l9.0781 16.941c-8.5 20.125-13.66 41.984-14.82 64.848zm-0.22656 12.297c0.25 19.93 3.543 39.133 9.4453 57.152l-17.852-5.3711c-4.6719-17.277-7.1797-35.445-7.1797-54.199 0-3.2148 0.082031-6.4141 0.23047-9.6016zm57.141 133.93c13.719 13.473 29.449 24.867 46.699 33.672l-16.434 8.9492c-18.547-10.738-35.277-24.324-49.598-40.164zm202.3 40.301c20.688-8.4258 39.566-20.438 55.875-35.273l2.3359 18.676c-18.805 15.414-40.355 27.535-63.801 35.48zm26.34-24.82c-2.7031-7.9414-5.5898-15.832-8.6602-23.656 8.5508-4.0078 16.254-9.4141 22.93-16.145 4.875-4.9141 20.121-22.191 23.348-48.461 10.125 2.4727 20.316 4.6523 30.539 6.5312-14.105 33.648-38.043 62.117-68.156 81.73zm91.766-141.94 14.711 11.512c-2.5781 25.09-9.6406 48.852-20.355 70.469l-9.2305-17.223c8.5156-20.062 13.711-41.883 14.875-64.758zm15.809-9.8867c0 3.2188-0.082032 6.418-0.22656 9.6016l-15.355-12.016c-0.24609-19.887-3.5117-39.09-9.3867-57.137l17.75 5.3438c4.7109 17.355 7.2188 35.547 7.2188 54.207zm-105.78-36.344c-13.23 6.7578-26.895 13.02-40.637 18.641h-15.625l17.73-17.879c10.617-4.5898 21.219-9.5703 31.527-14.836 22.184-11.332 43.738-24.309 64.211-38.621 2.5391 4.5273 4.8906 9.1719 7.043 13.926-20.457 14.379-42.031 27.418-64.25 38.77zm-71.59-85.281c-12.309-4.3164-22.809-4.8359-27.102-4.8359-11.719 0-23.051 2.5195-33.754 7.4961-2.8516-5.1797-5.8086-10.309-8.8281-15.402 9.5586-7.0078 23.941-14.258 42.582-14.258 4.0352 0 17.625 0.60156 32.152 7.7812-1.5664 6.4375-3.25 12.848-5.0508 19.219zm-60.027 25.316c5.457 10.863 10.609 22.055 15.324 33.277v20.215l-14.496-14.613c-4.5469-10.688-9.4805-21.355-14.691-31.723-11.922-23.723-25.68-46.723-40.898-68.457 4.4883-2.5391 9.0977-4.8828 13.82-7.0352 15.258 21.668 29.031 44.637 40.941 68.336zm-93.539-45.305-2.2969-18.348c18.727-15.434 40.254-27.625 63.801-35.602l-5.5625 18.793c-20.785 8.3984-39.668 20.375-55.941 35.156zm57.414-62.922c-24.07 8.2852-46.562 20.891-66.305 37.098l-20.176-3.2344c20.223-18.785 43.863-34.008 70.031-44.566zm-68.633 52.379 2.3867 19.098c-13.395 13.855-24.676 29.75-33.391 47.148l-8.6797-16.199c10.598-18.629 24-35.535 39.684-50.047zm-76.422 143.13c-0.125 3.0039-0.19141 6.0117-0.19141 9.0273 0 19.84 2.6797 39.055 7.6719 57.316l-11.031 17.23c-7.6523-22.664-11.902-46.895-12.164-72.074zm11.242 78.688c8.3008 24.504 20.859 47.031 36.777 66.695l-3.1953 20.273c-18.641-20.469-33.684-44.316-44.113-70.516zm45.184 76.473c14.969 16.402 32.414 30.469 51.734 41.594l4.3008 20.129c-21.891-10.93-41.816-25.273-59.094-42.336zm63.078 47.668c22.379 11.148 46.949 18.48 72.875 21.121l11.98 16.645c-28.555-1.207-55.777-7.6875-80.738-18.508zm85.629 22.023c2.9766 0.125 5.9648 0.20312 8.9727 0.20312 19.668 0 38.723-2.6992 56.828-7.7227l17.16 11.168c-22.48 7.7266-46.516 12.02-71.492 12.289zm78.008-11.301c24.336-8.3711 46.707-21.039 66.23-37.102l20.113 3.2266c-20.309 18.82-43.969 34.008-69.965 44.539zm68.668-52.223-2.4375-19.5c13.344-13.809 24.637-29.641 33.363-47l8.8516 16.52c-10.641 18.688-24.094 35.543-39.777 49.98zm76.395-143.27c0.12109-2.9961 0.20312-6.0078 0.20312-9.0352 0-19.723-2.6797-38.941-7.7031-57.266l11.055-17.266c7.6758 22.754 11.914 47.008 12.176 72.062zm-11.27-78.633c-8.2812-24.41-20.797-46.988-36.742-66.746l3.2188-20.406c18.695 20.566 33.695 44.488 44.09 70.645zm-8.9844 4.1055-18.5-5.5703c-8.3125-20.883-20.191-39.977-34.926-56.477l18.281-2.3242c15.305 19.043 27.289 40.824 35.145 64.371zm-61.84-70.883c-13.699-13.488-29.461-24.898-46.809-33.719l16.348-8.9062c18.598 10.77 35.281 24.387 49.535 40.199zm-82.676-90.059c14.297 3.1484 28.047 7.6211 41.133 13.27l4.1211 19.277c-14.75-7.3359-30.5-13.016-47.043-16.793 1.1562-4.2148 1.7891-8.6445 1.7891-13.227zm-5.3633 25.016c16.668 3.6836 32.504 9.3906 47.277 16.84l-17.098 9.3125c-12.852-5.5078-26.465-9.6367-40.672-12.188 4.2656-3.9727 7.8281-8.6992 10.492-13.965zm-22.273 22.129c6.0508 0.73438 11.996 1.7695 17.832 3.0898-1.4922 8.5469-3.1758 17.078-5.0781 25.566-15.113-6.9727-28.82-7.8125-34.441-7.8125-20.777 0-36.867 7.8711-47.691 15.648-5.4062-8.7539-11.051-17.348-16.922-25.754 13.543-5.2578 27.926-8.9102 42.922-10.734 6.5508 3.2461 13.91 5.0742 21.691 5.0742 7.7734 0 15.137-1.832 21.688-5.0781zm-80.723-1.6953 5.3359-18.02c3.2109-0.87891 6.4531-1.6875 9.7305-2.4141 2.6641 5.2656 6.2266 9.9922 10.492 13.969-8.7578 1.5742-17.289 3.7422-25.559 6.4648zm-105.24 18.863 19.273 3.0898c-7.5234 6.9609-14.578 14.473-21.082 22.504-7.582 9.3633-14.328 19.332-20.207 29.766l-19.887 4.3203c10.785-22.039 24.957-42.184 41.902-59.68zm328.4 324.22-19.234-3.0859c16.305-15.109 30.289-32.727 41.344-52.242l19.906-4.3242c-10.84 22.102-25.074 42.215-42.016 59.652zm-3.3633-327.77-3.082 19.535c-14.922-16.395-32.352-30.504-51.754-41.668l-4.3164-20.191c22.012 10.945 41.934 25.297 59.152 42.324zm-121.26-66.117v7.8828c0 21.984-17.723 39.871-39.504 39.871s-39.504-17.887-39.504-39.871v-7.8828h15.559v1.6406c0 13.203 10.742 23.949 23.949 23.949 13.203 0 23.949-10.742 23.949-23.949v-1.6406z"/>

    </g>
</svg>
